<svg width="18" height="19" viewBox="0 0 18 19" fill="none" xmlns="http://www.w3.org/2000/svg">
<path d="M7.35322 11.1765L5.10811 8.92776L4.09583 9.93643L7.35322 13.1938L16.5939 3.9531L15.5853 2.94443L7.35322 11.1765Z" fill="#EC407A"/>
<path d="M12.3134 9.45922C12.3604 9.76652 12.3966 10.0521 12.3966 10.3667C12.3966 13.0781 10.1912 15.2799 7.48335 15.2799C4.77187 15.2799 2.57015 13.0745 2.57015 10.3667C2.57015 7.65518 4.77549 5.45346 7.48335 5.45346C8.73425 5.45346 9.70677 5.87283 10.6793 6.62843L11.6916 5.61615C10.4262 4.59301 9.13916 4.02903 7.48335 4.02903C3.98373 4.02541 1.13849 6.87066 1.13849 10.3667C1.13849 13.8627 3.98373 16.7079 7.47974 16.7079C10.9757 16.7079 13.821 13.8627 13.821 10.3667C13.821 9.60021 13.6836 9.0073 13.4884 8.28424L12.3134 9.45922Z" fill="#EC407A"/>
</svg>
