<svg width="220" height="220" viewBox="0 0 220 220" fill="none" xmlns="http://www.w3.org/2000/svg">
<circle cx="109.846" cy="109.846" r="109.038" fill="#FA5C98" stroke="#FA5C98" stroke-width="1.61538"/>
<path d="M123.737 151.043C124.582 151.389 125.171 152.208 125.171 153.168C125.171 154.436 124.147 155.46 122.88 155.46H103.6C104.048 167.109 104.048 170.694 104.048 170.745C104.048 172.013 103.024 173.037 101.756 173.037C100.489 173.037 99.4649 172.013 99.4649 170.745C99.4649 170.694 99.4649 166.93 99.0169 155.46L98.7992 150.864L98.7608 150.275C98.6456 148.444 98.5432 146.562 98.4664 144.821C97.7495 130.906 97.519 126.361 81.0941 124.082C75.4997 123.301 70.9678 121.266 67.6777 118.398C65.2965 116.324 63.5554 113.802 62.5057 111.011C61.4687 108.22 61.1358 105.186 61.5711 102.05C62.1728 97.6844 64.2595 93.1525 67.9593 88.9023C71.275 85.1001 75.8581 81.0419 79.9419 77.4445C84.525 73.3991 88.4296 69.9553 88.5577 68.9568C88.6345 68.3807 88.3656 67.7662 87.956 67.3053C87.7511 67.0749 87.5335 66.8957 87.3287 66.8061L87.2903 66.7805C86.2917 68.4319 85.3828 69.6737 84.077 70.5314L83.9234 70.6338C82.4511 71.5428 80.7229 71.85 78.2649 71.5556C76.4086 71.338 73.9762 71.466 71.8895 72.3493C70.4941 72.9382 69.2651 73.8599 68.561 75.2554C68.1897 76.1259 67.2936 76.702 66.295 76.6252C65.0276 76.5356 64.0803 75.4346 64.1699 74.18C64.1699 74.1544 64.6948 64.092 70.4941 60.0338C71.5438 52.8903 75.5381 48.9473 80.4028 47.4751C83.9874 46.3997 88.02 46.7454 91.6429 48.192C95.2403 49.6386 98.4792 52.1862 100.489 55.5403C103.562 60.6483 103.83 67.4974 98.3896 74.9481C95.1251 79.4032 90.8236 83.3206 86.8422 86.918C80.5948 92.5892 75.282 97.4028 77.6632 101.243C80.5052 105.839 88.1352 101.282 97.3782 95.7641C103.28 92.2308 109.783 88.3646 116.479 86.009C131.623 80.709 147.191 83.0902 157.791 113.405C158.2 114.596 157.573 115.902 156.382 116.311C155.192 116.721 153.886 116.094 153.476 114.903C144.105 88.0957 130.83 85.8298 117.989 90.3105C111.729 92.4996 105.443 96.2506 99.7338 99.6687C90.0043 105.481 81.7214 110.422 76.2806 106.428C76.7286 107.324 77.4071 108.054 78.2649 108.643C79.9291 109.757 82.2207 110.397 84.7811 110.666C90.0427 111.216 96.2004 110.192 100.399 108.54C103.357 107.376 105.981 106.236 108.503 105.148C113.329 103.061 117.785 101.128 121.932 100.04C133.915 96.8651 142.94 100.091 149.098 123.314C149.098 123.314 138.805 119.064 135.413 118.398C131.022 117.553 126.4 118.897 122.508 120.997C119.244 122.751 116.991 125.183 115.634 127.923C114.43 130.342 113.931 133.031 114.046 135.706C114.162 138.407 114.917 141.121 116.236 143.554C117.9 146.639 120.46 149.302 123.776 150.979L123.737 151.043Z" fill="white"/>
<path d="M103.369 150.877H115.889C114.404 149.353 113.149 147.638 112.164 145.794C110.525 142.76 109.59 139.368 109.437 135.975C109.296 132.544 109.949 129.1 111.498 125.964C113.252 122.405 116.145 119.268 120.306 117.028C125.004 114.493 130.675 112.893 136.244 113.968C138.164 114.34 140.059 115.018 141.89 116.094C137.025 104.137 130.816 102.485 123.071 104.533C119.217 105.558 114.929 107.401 110.294 109.411C107.593 110.576 104.764 111.805 102.05 112.868C97.2877 114.737 90.2978 115.902 84.3065 115.274C81.042 114.929 78.0079 114.058 75.6908 112.496C73.1432 110.768 71.4405 108.284 71.1461 104.853C70.954 102.575 71.4149 99.8863 72.7207 96.7626C74.0137 92.4228 78.6352 88.2237 83.7688 83.5766C87.571 80.1329 91.6804 76.4075 94.6889 72.2853C98.8367 66.6012 98.7471 61.57 96.558 57.9214C95.073 55.4507 92.6534 53.556 89.9394 52.4678C87.2381 51.3924 84.2937 51.1236 81.7077 51.9045C78.264 52.9415 75.4603 55.9883 74.8971 61.6724C74.8202 62.4789 74.321 63.1446 73.6553 63.4903C71.9398 64.3608 70.8132 66.2299 70.0707 68.1758H70.1219C73.0152 66.9468 76.3181 66.742 78.8017 67.0492C80.1459 67.2157 80.978 67.1133 81.5285 66.7804L81.6181 66.7292C82.1942 66.3323 82.7447 65.5514 83.3976 64.4504C84.1657 63.1702 85.241 62.4917 86.4316 62.2869C87.379 62.1205 88.3647 62.2869 89.2737 62.7222C90.0674 63.0934 90.7971 63.6567 91.3988 64.3352C92.6022 65.705 93.3703 67.6509 93.1015 69.648C92.7302 72.3109 88.2495 76.2795 82.9751 80.9266C79.0449 84.3959 74.6282 88.3005 71.4277 91.9747C68.3296 95.5336 66.6014 99.2334 66.1149 102.741C65.7821 105.122 66.0253 107.401 66.8062 109.475C67.5743 111.536 68.8929 113.418 70.698 114.993C73.348 117.297 77.0606 118.948 81.7205 119.601C101.896 122.392 102.178 127.884 103.036 144.642C103.113 146.255 103.202 147.996 103.343 150.044L103.394 150.915L103.369 150.877Z" fill="white"/>
</svg>
